<svg xmlns="http://www.w3.org/2000/svg" xmlns:xlink="http://www.w3.org/1999/xlink" version="1.1" x="0px" y="0px" viewBox="0 0 128 160" enable-background="new 0 0 128 128" xml:space="preserve"><g><path d="M97.848,66.582c0.063-0.856,0.132-1.711,0.132-2.583c0-8.334-3.049-15.958-8.071-21.855   c-0.137-0.231-0.308-0.439-0.534-0.588c-3.341-3.742-7.473-6.756-12.165-8.726c-0.025-0.004-0.046-0.014-0.071-0.025   c-3.988-1.657-8.354-2.583-12.937-2.583c-4.583,0-8.949,0.926-12.936,2.583c-0.027,0.011-0.049,0.021-0.074,0.028   c-4.702,1.97-8.844,4.994-12.186,8.746c-0.21,0.146-0.375,0.339-0.505,0.555c-5.026,5.9-8.078,13.529-8.078,21.865   c0,0.877,0.066,1.738,0.132,2.597c-0.009,0.106,0.006,0.21,0.016,0.312c0.444,5.166,2.063,9.988,4.573,14.229   c0.079,0.215,0.196,0.406,0.349,0.573c4.614,7.449,12.023,12.965,20.769,15.086c0.167,0.07,0.342,0.117,0.523,0.135   c2.391,0.536,4.867,0.845,7.417,0.845s5.021-0.308,7.411-0.845c0.187-0.018,0.365-0.064,0.536-0.137   c8.739-2.119,16.142-7.635,20.755-15.075c0.163-0.18,0.292-0.383,0.374-0.614c2.495-4.225,4.104-9.02,4.552-14.158   C97.845,66.822,97.858,66.704,97.848,66.582z M90.471,78.884l-12.187,1.587l-5.272-6.36l3.663-11.27l8.739-3.759l8.802,8.329   C93.75,71.546,92.44,75.423,90.471,78.884z M50.12,80.471l-12.188-1.587c-1.97-3.461-3.278-7.338-3.745-11.471l8.804-8.328   l8.738,3.755l3.661,11.27L50.12,80.471z M40.695,56.366l-6.646,6.284c0.249-5.636,2.024-10.883,4.96-15.308L40.695,56.366z    M58.673,72.711l-3.412-10.506l8.94-6.496l8.941,6.496l-3.415,10.506H58.673z M87.712,56.363l1.686-9.015   c2.933,4.426,4.705,9.664,4.958,15.297L87.712,56.363z M86.474,43.643l-2.26,12.085l-8.756,3.764l-9.48-6.884V42.364l10.727-5.846   C80.431,38.219,83.741,40.656,86.474,43.643z M72.247,34.898l-8.046,4.385l-8.045-4.385c2.565-0.71,5.257-1.119,8.045-1.119   C66.99,33.779,69.682,34.188,72.247,34.898z M51.697,36.517l10.727,5.848v10.244l-9.481,6.884l-8.75-3.761l-2.26-12.091   C44.665,40.655,47.973,38.219,51.697,36.517z M40.591,82.815l9.084,1.18l3.928,8.272C48.452,90.331,43.966,87.041,40.591,82.815z    M58.18,93.616l-5.223-10.997l5.263-6.353h11.965l5.265,6.355l-5.223,10.994c-1.948,0.396-3.961,0.606-6.025,0.606   C62.141,94.223,60.126,94.012,58.18,93.616z M74.805,92.264l3.928-8.269l9.079-1.18C84.436,87.04,79.951,90.325,74.805,92.264z"/></g><text x="0" y="143" fill="#000000" font-size="5px" font-weight="bold" font-family="'Helvetica Neue', Helvetica, Arial-Unicode, Arial, Sans-serif">Created by Alexey Voropaev</text><text x="0" y="148" fill="#000000" font-size="5px" font-weight="bold" font-family="'Helvetica Neue', Helvetica, Arial-Unicode, Arial, Sans-serif">from the Noun Project</text></svg>